#N canvas 34 72 966 630 12;
#X obj 197 338 osc~ 440;
#X obj 197 94 tgl 25 0 empty empty empty 17 7 0 10 #e4e4e4 #4d4d4d #373737 0 1;
#X msg 146 290 110;
#X obj 197 171 f, f 5;
#X obj 247 171 + 1;
#X obj 247 198 % 4;
#X obj 197 253 sel 1;
#X obj 146 253 sel 0;
#X obj 247 253 sel 2;
#X obj 296 253 sel 3;
#X msg 197 290 220;
#X msg 247 290 330;
#X msg 299 290 440;
#X obj 190 424 dac~;
#X obj 197 388 *~ 0.1;
#X msg 276 399 0;
#X msg 276 362 0.1;
#X obj 204 26 loadbang;
#X obj 79 322 bng 19 250 50 0 empty empty empty 0 -10 0 12 #fcfcfc #000000 #000000;
#X obj 142 348 bng 19 250 50 0 empty empty empty 0 -10 0 12 #fcfcfc #000000 #000000;
#X obj 317 342 bng 19 250 50 0 empty empty empty 0 -10 0 12 #fcfcfc #000000 #000000;
#X obj 383 319 bng 19 250 50 0 empty empty empty 0 -10 0 12 #fcfcfc #000000 #000000;
#X obj 197 134 metro 10;
#X obj 253 103 hsl 162 19 5 500 1 0 empty empty empty -2 -10 0 12 #fcfcfc #000000 #000000 0 1;
#X msg 250 77 300;
#X connect 0 0 14 0;
#X connect 1 0 22 0;
#X connect 2 0 0 0;
#X connect 3 0 4 0;
#X connect 3 0 7 0;
#X connect 3 0 6 0;
#X connect 3 0 8 0;
#X connect 3 0 9 0;
#X connect 4 0 5 0;
#X connect 5 0 3 1;
#X connect 6 0 10 0;
#X connect 6 0 19 0;
#X connect 7 0 2 0;
#X connect 7 0 18 0;
#X connect 8 0 11 0;
#X connect 8 0 20 0;
#X connect 9 0 12 0;
#X connect 9 0 21 0;
#X connect 10 0 0 0;
#X connect 11 0 0 0;
#X connect 12 0 0 0;
#X connect 14 0 13 0;
#X connect 14 0 13 1;
#X connect 15 0 14 1;
#X connect 16 0 14 1;
#X connect 17 0 1 0;
#X connect 17 0 24 0;
#X connect 22 0 3 0;
#X connect 23 0 22 1;
#X connect 24 0 23 0;
