#N canvas 109 166 919 664 12;
#X obj 239 461 dac~;
#X obj 183 381 *~ 0.5;
#X floatatom 270 248 5 0 0 0 - - - 0;
#X obj 253 392 *~ 0.5;
#X obj 333 396 *~ 0.5;
#X obj 257 303 * 0.75;
#X obj 123 119 notein;
#X floatatom 125 164 5 0 0 0 - - - 0;
#X obj 122 211 mtof;
#X obj 338 308 *~ 0.99;
#X floatatom 514 266 5 0 0 0 - - - 0;
#X floatatom 514 326 5 0 0 0 - - - 0;
#X obj 514 295 / 127;
#X obj 513 190 ctlin 1;
#X floatatom 594 266 5 0 0 0 - - - 0;
#X floatatom 594 326 5 0 0 0 - - - 0;
#X obj 594 295 / 127;
#X obj 593 190 ctlin 2;
#X floatatom 665 266 5 0 0 0 - - - 0;
#X floatatom 665 326 5 0 0 0 - - - 0;
#X obj 665 295 / 127;
#X obj 664 190 ctlin 3;
#X floatatom 749 263 5 0 0 0 - - - 0;
#X floatatom 749 323 5 0 0 0 - - - 0;
#X obj 749 292 / 127;
#X obj 406 398 *~ 0.5;
#X obj 748 187 ctlin 4;
#X obj 410 311 *~ 0.25;
#X obj 419 108 loadbang;
#X floatatom 405 160 5 0 0 0 - - - 0;
#X obj 183 338 osc~ 220;
#X obj 257 335 osc~ 220;
#X obj 338 340 osc~ 220;
#X obj 410 343 osc~ 220;
#X connect 1 0 0 0;
#X connect 1 0 0 1;
#X connect 2 0 5 0;
#X connect 2 0 9 0;
#X connect 2 0 27 0;
#X connect 2 0 30 0;
#X connect 3 0 0 0;
#X connect 3 0 0 1;
#X connect 4 0 0 0;
#X connect 4 0 0 1;
#X connect 5 0 31 0;
#X connect 6 0 7 0;
#X connect 7 0 8 0;
#X connect 8 0 2 0;
#X connect 9 0 32 0;
#X connect 10 0 12 0;
#X connect 11 0 1 1;
#X connect 12 0 11 0;
#X connect 13 0 10 0;
#X connect 14 0 16 0;
#X connect 15 0 3 1;
#X connect 16 0 15 0;
#X connect 17 0 14 0;
#X connect 18 0 20 0;
#X connect 19 0 4 1;
#X connect 20 0 19 0;
#X connect 21 0 18 0;
#X connect 22 0 24 0;
#X connect 23 0 25 1;
#X connect 24 0 23 0;
#X connect 25 0 0 1;
#X connect 25 0 0 0;
#X connect 26 0 22 0;
#X connect 27 0 33 0;
#X connect 28 0 29 0;
#X connect 29 0 2 0;
#X connect 30 0 1 0;
#X connect 31 0 3 0;
#X connect 32 0 4 0;
#X connect 33 0 25 0;
