#N canvas 498 38 1026 888 12;
#X obj 81 167 line~;
#X obj 81 138 pack 0 500, f 12;
#X obj 81 103 del 10;
#X obj 22 75 pack 1 5;
#X obj 75 45 inlet;
#X obj 120 72 inlet;
#X obj 162 96 inlet;
#X obj 22 20 inlet, f 7;
#X text 82 19 trig;
#X text 118 45 attack;
#X text 163 72 hold;
#X text 203 96 release;
#X obj 81 197 outlet~;
#X connect 0 0 12 0;
#X connect 1 0 0 0;
#X connect 2 0 1 0;
#X connect 3 0 0 0;
#X connect 4 0 3 1;
#X connect 5 0 2 1;
#X connect 6 0 1 1;
#X connect 7 0 2 0;
#X connect 7 0 3 0;
#X coords 0 1776 4 1772 85 60 0;
