#N canvas 756 38 756 916 12;
#X obj 304 17 notein;
#X floatatom 273 74 5 0 0 0 - - - 0;
#X floatatom 321 72 5 0 0 0 - - - 0;
#X floatatom 370 70 5 0 0 0 - - - 0;
#X obj 393 384 osc~ 440;
#X obj 420 280 mtof;
#X floatatom 421 311 5 0 0 0 - - - 0;
#X obj 646 334 vsl 19 162 0 0.6 0 0 empty empty empty 0 -9 0 12 #fcfcfc #000000 #000000 0 1;
#X obj 495 566 dac~;
#X obj 479 511 *~;
#X obj 348 614 *~;
#X obj 302 548 line~;
#X obj 313 381 bng 19 250 50 0 empty empty empty 0 -10 0 12 #fcfcfc #000000 #000000;
#X obj 253 699 metro 10;
#X obj 253 723 snapshot~;
#X floatatom 253 747 5 0 0 0 - - - 0;
#X obj 193 662 tgl 19 0 empty empty empty 0 -10 0 12 #fcfcfc #000000 #000000 0 1;
#X msg 339 419 1 5;
#X obj 200 435 del 10;
#X obj 504 703 vsl 19 162 0 1 0 0 empty empty empty 0 -9 0 12 #fcfcfc #000000 #000000 0 1;
#X obj 304 299 spigot;
#X msg 201 486 0 200;
#X obj 416 435 *~ 10;
#X obj 414 475 clip~ -1 1;
#X obj 435 594 lop~;
#X obj 599 561 vsl 19 162 100 10000 1 0 empty empty empty 0 -9 0 12 #fcfcfc #000000 #000000 0 1;
#X obj 485 381 osc~ 440;
#X obj 508 432 *~ 10;
#X obj 572 128 vsl 19 162 0 10 0 0 empty empty empty 0 -9 0 12 #fcfcfc #000000 #000000 0 1;
#X obj 488 353 *~ 5;
#X obj 430 646 *~ 10000;
#X obj 371 184 route 1 2;
#X obj 371 159 pack i i i;
#X obj 371 243 unpack i i;
#X obj 210 259 print;
#X listbox 448 210 14 0 0 0 - - - 0;
#X connect 0 0 1 0;
#X connect 0 1 2 0;
#X connect 0 2 3 0;
#X connect 1 0 32 1;
#X connect 2 0 32 2;
#X connect 3 0 32 0;
#X connect 4 0 22 0;
#X connect 5 0 6 0;
#X connect 6 0 4 0;
#X connect 6 0 29 0;
#X connect 7 0 9 1;
#X connect 9 0 8 0;
#X connect 9 0 8 1;
#X connect 10 0 24 0;
#X connect 10 0 30 0;
#X connect 11 0 10 1;
#X connect 11 0 14 0;
#X connect 12 0 17 0;
#X connect 12 0 18 0;
#X connect 13 0 14 0;
#X connect 14 0 15 0;
#X connect 15 0 19 0;
#X connect 16 0 13 0;
#X connect 17 0 11 0;
#X connect 18 0 21 0;
#X connect 20 0 12 0;
#X connect 21 0 11 0;
#X connect 22 0 23 0;
#X connect 23 0 10 0;
#X connect 24 0 9 0;
#X connect 25 0 24 1;
#X connect 26 0 27 0;
#X connect 26 0 4 0;
#X connect 27 0 23 0;
#X connect 28 0 29 1;
#X connect 29 0 26 0;
#X connect 30 0 24 1;
#X connect 31 0 33 0;
#X connect 31 1 34 0;
#X connect 32 0 31 0;
#X connect 33 0 20 0;
#X connect 33 0 5 0;
#X connect 33 1 20 1;
