#N canvas 827 239 527 327 12;
#X obj 67 32 adc~;
#X obj 224 832 dac~;
#N canvas 0 0 450 250 (subpatch) 0;
#X array vu 500 float 2;
#X coords 0 1 500 -1 200 140 1;
#X restore 487 734 graph;
#X obj 488 627 tgl 21 0 empty empty empty 0 -11 0 12 #fcfcfc #000000 #000000 0 1;
#X obj 489 666 metro 100;
#X obj 489 695 tabwrite~ vu;
#X obj 224 781 *~;
#X obj 311 731 hsl 128 17 0 2 0 0 empty empty empty -2 -8 0 10 #e4e4e4 #4d4d4d #373737 0 1;
#N canvas 0 0 450 250 (subpatch) 0;
#X array amp 500 float 0;
#X coords 0 2 499 -2 200 140 1;
#X restore 756 161 graph;
#X obj 757 54 tgl 21 0 empty empty empty 0 -11 0 12 #fcfcfc #000000 #000000 0 1;
#X obj 758 93 metro 100;
#X obj 758 122 tabwrite~ amp;
#X obj 243 96 *~;
#X obj 367 54 hsl 128 17 0 10 0 0 empty empty empty -2 -8 0 10 #e4e4e4 #4d4d4d #373737 0 1;
#X obj 390 378 *~ 2;
#X obj 408 412 -~ 1;
#X obj 409 543 dac~;
#X obj 340 240 <~ 0.01;
#X connect 0 0 6 0;
#X connect 0 0 12 0;
#X connect 3 0 4 0;
#X connect 4 0 5 0;
#X connect 6 0 1 0;
#X connect 6 0 1 1;
#X connect 6 0 5 0;
#X connect 7 0 6 1;
#X connect 9 0 10 0;
#X connect 10 0 11 0;
#X connect 12 0 17 0;
#X connect 13 0 12 1;
#X connect 14 0 15 0;
#X connect 15 0 11 0;
#X connect 15 0 16 0;
#X connect 15 0 16 1;
#X connect 17 0 14 0;
