#N canvas 827 239 527 327 12;
#N canvas 0 22 450 278 (subpatch) 0;
#X array wavetable 128 float 0;
#X coords 0 1 127 -1 399 310 1;
#X restore 518 92 graph;
#X obj 375 583 *~;
#X floatatom 461 567 6 0 0 0 empty - - 16;
#X obj 375 618 dac~;
#X obj 375 542 tabread~ wavetable;
#X floatatom 341 332 5 0 0 0 empty - - 12;
#N canvas 0 22 450 278 (subpatch) 0;
#X array outwave 500 float 0;
#X coords 0 1 499 -1 399 212 1;
#X restore 518 464 graph;
#X obj 228 479 tgl 25 0 empty empty empty 17 7 0 10 #e4e4e4 #4d4d4d #373737 0 1;
#X obj 228 542 tabwrite~ outwave;
#X obj 228 513 metro 100;
#X obj 334 381 phasor~;
#X obj 355 458 *~ 100;
#X obj 265 281 notein;
#X obj 272 318 mtof;
#X connect 1 0 3 0;
#X connect 1 0 3 1;
#X connect 2 0 1 1;
#X connect 4 0 1 0;
#X connect 4 0 8 0;
#X connect 5 0 10 0;
#X connect 7 0 9 0;
#X connect 9 0 8 0;
#X connect 10 0 11 0;
#X connect 11 0 4 0;
#X connect 12 0 13 0;
#X connect 13 0 5 0;
