#N canvas 301 120 2178 1386 12;
#X floatatom 363 54 5 0 0 0 - - - 0;
#X obj 375 169 phasor~;
#X obj 317 113 phasor~;
#X obj 357 196 +~;
#X floatatom 375 145 10 0 0 0 - - - 0;
#X obj 375 113 expr $i1 * (1 + $f2);
#X floatatom 489 71 5 -1 12 0 - - - 0;
#X obj 468 71 bng 15 250 50 0 empty empty empty 17 7 0 10 #fcfcfc #000000
#000000;
#X obj 357 221 expr~ $v1 - 1;
#X obj 437 356 outlet~;
#X obj 363 29 inlet;
#X obj 516 36 inlet;
#X obj 362 76 mtof;
#X obj 577 264 midi_out;
#X connect 0 0 12 0;
#X connect 1 0 3 1;
#X connect 2 0 3 0;
#X connect 3 0 8 0;
#X connect 4 0 1 0;
#X connect 5 0 4 0;
#X connect 6 0 5 1;
#X connect 6 0 7 0;
#X connect 7 0 5 0;
#X connect 8 0 9 0;
#X connect 10 0 0 0;
#X connect 11 0 6 0;
#X connect 12 0 5 0;
#X connect 12 0 2 0;
