#N canvas 497 38 1026 888 12;
#X obj 170 60 inlet;
#X text 213 58 trig;
#X obj 171 165 AHR, f 9;
#X obj 171 83 bng 19 250 50 0 empty empty empty 0 -10 0 12 #fcfcfc #000000 #000000;
#X obj 195 222 *~ 100;
#X obj 240 280 phasor~;
#X obj 254 369 *~;
#X obj 186 369 *~;
#X obj 220 420 +~;
#X obj 152 273 osc~;
#X obj 220 461 outlet~;
#X obj 70 191 loadbang;
#X msg 223 109 120;
#X msg 252 192 150;
#X msg 285 336 0;
#X msg 204 336 1;
#X obj 279 111 inlet;
#X obj 313 141 inlet;
#X obj 351 179 inlet;
#X obj 377 206 inlet;
#X text 322 111 pitch env;
#X text 359 142 pitch mult;
#X text 396 178 sine mix;
#X text 422 204 saw mix;
#X text 66 16 NOTE: add a AHR hold inlet? maybe? to try.;
#X connect 0 0 3 0;
#X connect 2 0 4 0;
#X connect 3 0 2 0;
#X connect 4 0 5 0;
#X connect 4 0 9 0;
#X connect 5 0 6 0;
#X connect 6 0 8 1;
#X connect 7 0 8 0;
#X connect 8 0 10 0;
#X connect 9 0 7 0;
#X connect 11 0 12 0;
#X connect 11 0 13 0;
#X connect 11 0 14 0;
#X connect 11 0 15 0;
#X connect 12 0 2 3;
#X connect 13 0 4 1;
#X connect 14 0 6 1;
#X connect 15 0 7 1;
#X connect 16 0 2 3;
#X connect 17 0 4 1;
#X connect 18 0 7 1;
#X connect 19 0 6 1;
