#N canvas 34 72 1292 805 12;
#X obj 107 123 vsl 30 40 0.01 1 1 0 empty empty empty 0 -9 0 12 #fcfcfc #000000 #000000 0 1;
#X obj 488 393 *~;
#X obj 396 368 inlet~;
#X obj 487 710 outlet~;
#X obj 107 173 vsl 30 40 0.01 1 1 0 empty empty empty 0 -9 0 12 #fcfcfc #000000 #000000 0 1;
#X obj 489 460 *~;
#X obj 107 223 vsl 30 40 0.01 1 1 0 empty empty empty 0 -9 0 12 #fcfcfc #000000 #000000 0 1;
#X obj 489 525 *~;
#X obj 107 272 vsl 30 40 0.01 1 1 0 empty empty empty 0 -9 0 12 #fcfcfc #000000 #000000 0 1;
#X obj 491 588 *~;
#X obj 140 123 vsl 30 40 0.01 1 1 0 empty empty empty 0 -9 0 12 #fcfcfc #000000 #000000 0 1;
#X obj 573 395 *~;
#X obj 572 712 outlet~;
#X obj 140 173 vsl 30 40 0.01 1 1 0 empty empty empty 0 -9 0 12 #fcfcfc #000000 #000000 0 1;
#X obj 574 462 *~;
#X obj 140 223 vsl 30 40 0.01 1 1 0 empty empty empty 0 -9 0 12 #fcfcfc #000000 #000000 0 1;
#X obj 574 527 *~;
#X obj 140 272 vsl 30 40 0.01 1 1 0 empty empty empty 0 -9 0 12 #fcfcfc #000000 #000000 0 1;
#X obj 576 590 *~;
#X obj 173 123 vsl 30 40 0.01 1 1 0 empty empty empty 0 -9 0 12 #fcfcfc #000000 #000000 0 1;
#X obj 659 399 *~;
#X obj 658 716 outlet~;
#X obj 173 174 vsl 30 40 0.01 1 1 0 empty empty empty 0 -9 0 12 #fcfcfc #000000 #000000 0 1;
#X obj 660 466 *~;
#X obj 173 223 vsl 30 40 0.01 1 1 0 empty empty empty 0 -9 0 12 #fcfcfc #000000 #000000 0 1;
#X obj 660 531 *~;
#X obj 173 271 vsl 30 40 0.01 1 1 0 empty empty empty 0 -9 0 12 #fcfcfc #000000 #000000 0 1;
#X obj 662 594 *~;
#X obj 206 123 vsl 30 40 0.01 1 1 0 empty empty empty 0 -9 0 12 #fcfcfc #000000 #000000 0 1;
#X obj 744 401 *~;
#X obj 743 718 outlet~;
#X obj 206 174 vsl 30 40 0.01 1 1 0 empty empty empty 0 -9 0 12 #fcfcfc #000000 #000000 0 1;
#X obj 745 468 *~;
#X obj 206 223 vsl 30 40 0.01 1 1 0 empty empty empty 0 -9 0 12 #fcfcfc #000000 #000000 0 1;
#X obj 745 533 *~;
#X obj 206 271 vsl 30 40 0.01 1 1 0 empty empty empty 0 -9 0 12 #fcfcfc #000000 #000000 0 1;
#X obj 747 596 *~;
#X obj 395 436 inlet~;
#X obj 393 502 inlet~;
#X obj 396 565 inlet~;
#X connect 0 0 1 1;
#X connect 1 0 3 0;
#X connect 2 0 1 0;
#X connect 2 0 11 0;
#X connect 2 0 20 0;
#X connect 2 0 29 0;
#X connect 4 0 5 1;
#X connect 5 0 3 0;
#X connect 6 0 7 1;
#X connect 7 0 3 0;
#X connect 8 0 9 1;
#X connect 9 0 3 0;
#X connect 10 0 11 1;
#X connect 11 0 12 0;
#X connect 13 0 14 1;
#X connect 14 0 12 0;
#X connect 15 0 16 1;
#X connect 16 0 12 0;
#X connect 17 0 18 1;
#X connect 18 0 12 0;
#X connect 19 0 20 1;
#X connect 20 0 21 0;
#X connect 22 0 23 1;
#X connect 23 0 21 0;
#X connect 24 0 25 1;
#X connect 25 0 21 0;
#X connect 26 0 27 1;
#X connect 27 0 21 0;
#X connect 28 0 29 1;
#X connect 29 0 30 0;
#X connect 31 0 32 1;
#X connect 32 0 30 0;
#X connect 33 0 34 1;
#X connect 34 0 30 0;
#X connect 35 0 36 1;
#X connect 36 0 30 0;
#X connect 37 0 5 0;
#X connect 37 0 14 0;
#X connect 37 0 23 0;
#X connect 37 0 32 0;
#X connect 38 0 7 0;
#X connect 38 0 16 0;
#X connect 38 0 25 0;
#X connect 38 0 34 0;
#X connect 39 0 9 0;
#X connect 39 0 18 0;
#X connect 39 0 27 0;
#X connect 39 0 36 0;
#X coords 0 -1 1 1 140 220 1 100 100;
