#N canvas 5 63 1512 888 12;
#X obj 91 43 midiin;
#X obj 93 137 spigot;
#X obj 188 97 tgl 19 0 empty empty empty 0 -10 0 12 #fcfcfc #000000 #000000 0 1;
#X obj 98 206 print;
#X text 498 82 multiplexer study;
#X obj 651 157 print com;
#X obj 524 380 print in_c;
#X obj 524 358 print in_b;
#X obj 524 335 print in_a;
#X obj 400 138 print in_1;
#X obj 400 161 print in_2;
#X obj 400 183 print in_3;
#X obj 400 205 print in_4;
#X obj 400 228 print in_5;
#X obj 400 250 print in_6;
#X obj 400 272 print in_7;
#X obj 400 294 print in_8;
#X obj 566 288 byte;
#X floatatom 45 417 5 0 0 0 - - - 0;
#X obj 133 299 tgl 19 0 empty empty empty 0 -10 0 12 #fcfcfc #000000 #000000 0 1;
#X floatatom 133 323 5 0 0 0 - - - 0;
#X obj 189 298 tgl 19 0 empty empty empty 0 -10 0 12 #fcfcfc #000000 #000000 0 1;
#X floatatom 189 322 5 0 0 0 - - - 0;
#X obj 247 300 tgl 19 0 empty empty empty 0 -10 0 12 #fcfcfc #000000 #000000 0 1;
#X floatatom 247 324 5 0 0 0 - - - 0;
#X obj 303 298 tgl 19 0 empty empty empty 0 -10 0 12 #fcfcfc #000000 #000000 0 1;
#X floatatom 303 323 5 0 0 0 - - - 0;
#X obj 11 364 bng 19 250 50 0 empty empty empty 0 -10 0 12 #fcfcfc #000000 #000000;
#X floatatom 184 457 5 0 0 0 - - - 0;
#X floatatom 232 469 5 0 0 0 - - - 0;
#X floatatom 287 455 5 0 0 0 - - - 0;
#X obj 62 378 expr pow($i1*2 \, 0)+ pow($i2*2 \, 1)+ pow($i3*2 \, 2)+ pow($i4*2 \, 3), f 64;
#X connect 0 0 1 0;
#X connect 1 0 3 0;
#X connect 2 0 1 1;
#X connect 19 0 20 0;
#X connect 20 0 31 0;
#X connect 21 0 22 0;
#X connect 22 0 27 0;
#X connect 22 0 31 1;
#X connect 23 0 24 0;
#X connect 24 0 27 0;
#X connect 24 0 31 2;
#X connect 25 0 26 0;
#X connect 26 0 27 0;
#X connect 26 0 31 3;
#X connect 27 0 31 0;
#X connect 31 0 18 0;
