#N canvas 34 72 1369 854 12;
#X obj 532 440 osc~;
#X floatatom 527 357 8 0 0 0 - - - 16;
#X obj 670 558 *~;
#X obj 598 440 osc~;
#X obj 598 394 / 2;
#X obj 670 440 osc~;
#X obj 670 394 / 3;
#X obj 697 489 vsl 8 57 0 1 0 0 empty empty empty 0 -9 0 10 #e4e4e4 #4d4d4d #373737 0 1;
#X obj 598 558 *~;
#X obj 625 489 vsl 8 57 0 1 0 0 empty empty empty 0 -9 0 10 #e4e4e4 #4d4d4d #373737 0 1;
#X obj 807 558 *~;
#X obj 735 440 osc~;
#X obj 807 440 osc~;
#X obj 834 489 vsl 8 57 0 1 0 0 empty empty empty 0 -9 0 10 #e4e4e4 #4d4d4d #373737 0 1;
#X obj 735 558 *~;
#X obj 762 489 vsl 8 57 0 1 0 0 empty empty empty 0 -9 0 10 #e4e4e4 #4d4d4d #373737 0 1;
#X obj 946 558 *~;
#X obj 874 440 osc~;
#X obj 946 440 osc~;
#X obj 973 489 vsl 8 57 0 1 0 0 empty empty empty 0 -9 0 10 #e4e4e4 #4d4d4d #373737 0 1;
#X obj 874 558 *~;
#X obj 901 489 vsl 8 57 0 1 0 0 empty empty empty 0 -9 0 10 #e4e4e4 #4d4d4d #373737 0 1;
#X obj 1011 440 osc~;
#X obj 1011 558 *~;
#X obj 1038 489 vsl 8 57 0 1 0 0 empty empty empty 0 -9 0 10 #e4e4e4 #4d4d4d #373737 0 1;
#X obj 735 394 / 4;
#X obj 807 394 / 5;
#X obj 874 394 / 6;
#X obj 946 394 / 7;
#X obj 1011 394 / 8;
#X obj 532 558 *~;
#X obj 559 489 vsl 8 57 0 1 0 0 empty empty empty 0 -9 0 10 #e4e4e4 #4d4d4d #373737 0 1;
#X floatatom 739 720 5 0 1 0 - - - 12;
#X obj 693 773 dac~;
#N canvas 0 22 450 278 (subpatch) 0;
#X array wave 500 float 0;
#X coords 0 1 499 -1 200 140 1;
#X restore 29761 29370 graph;
#N canvas 0 0 450 250 (subpatch) 0;
#X array vwvwv 500 float 0;
#X coords 0 1 499 -1 271 212 1 0 0;
#X restore 158 91 graph;
#X obj 396 560 tgl 25 0 empty empty empty 17 7 0 10 #e4e4e4 #4d4d4d #373737 0 1;
#X obj 585 272 snapshot~;
#X obj 396 596 metro 100;
#X floatatom 585 305 5 0 0 0 - - - 0;
#X obj 608 90 metro 100;
#X obj 608 65 tgl 19 0 empty empty empty 0 -10 0 12 #fcfcfc #000000 #000000 0 1;
#X obj 585 242 osc~;
#X floatatom 605 173 5 0 0 0 - - - 0;
#X obj 657 272 snapshot~;
#X floatatom 657 299 5 0 0 0 - - - 0;
#X obj 657 242 osc~;
#X floatatom 677 173 5 0 0 0 - - - 0;
#X obj 732 272 snapshot~;
#X floatatom 732 305 5 0 0 0 - - - 0;
#X obj 732 242 osc~;
#X floatatom 752 173 5 0 0 0 - - - 0;
#X obj 804 272 snapshot~;
#X floatatom 804 299 5 0 0 0 - - - 0;
#X obj 804 242 osc~;
#X floatatom 824 173 5 0 0 0 - - - 0;
#X obj 884 271 snapshot~;
#X floatatom 884 304 5 0 0 0 - - - 0;
#X obj 884 241 osc~;
#X floatatom 904 172 5 0 0 0 - - - 0;
#X obj 956 271 snapshot~;
#X floatatom 956 298 5 0 0 0 - - - 0;
#X obj 956 241 osc~;
#X floatatom 976 172 5 0 0 0 - - - 0;
#X obj 1031 271 snapshot~;
#X floatatom 1031 304 5 0 0 0 - - - 0;
#X obj 1031 241 osc~;
#X floatatom 1051 172 5 0 0 0 - - - 0;
#X obj 1103 271 snapshot~;
#X floatatom 1103 298 5 0 0 0 - - - 0;
#X obj 1103 241 osc~;
#X floatatom 1129 175 5 0 0 0 - - - 0;
#X obj 481 481 ftom;
#X floatatom 477 524 5 0 0 0 - - - 0;
#X obj 694 739 *~;
#X obj 695 683 *~ 0.25;
#X text 1084 55 oschestra;
#X obj 396 668 tabwrite~ vwvwv;
#X obj 1127 205 / 16;
#X obj 1037 204 / 16;
#X obj 975 202 / 16;
#X obj 885 201 / 16;
#X obj 829 209 / 16;
#X obj 739 208 / 16;
#X obj 677 206 / 16;
#X obj 587 205 / 16;
#X connect 0 0 30 0;
#X connect 1 0 4 0;
#X connect 1 0 0 0;
#X connect 1 0 6 0;
#X connect 1 0 25 0;
#X connect 1 0 26 0;
#X connect 1 0 27 0;
#X connect 1 0 28 0;
#X connect 1 0 29 0;
#X connect 2 0 75 0;
#X connect 3 0 8 0;
#X connect 4 0 3 0;
#X connect 5 0 2 0;
#X connect 6 0 5 0;
#X connect 7 0 2 1;
#X connect 8 0 75 0;
#X connect 9 0 8 1;
#X connect 10 0 75 0;
#X connect 11 0 14 0;
#X connect 12 0 10 0;
#X connect 13 0 10 1;
#X connect 14 0 75 0;
#X connect 15 0 14 1;
#X connect 16 0 75 0;
#X connect 17 0 20 0;
#X connect 18 0 16 0;
#X connect 19 0 16 1;
#X connect 20 0 75 0;
#X connect 21 0 20 1;
#X connect 22 0 23 0;
#X connect 23 0 75 0;
#X connect 24 0 23 1;
#X connect 25 0 11 0;
#X connect 26 0 12 0;
#X connect 27 0 17 0;
#X connect 28 0 18 0;
#X connect 29 0 22 0;
#X connect 29 0 72 0;
#X connect 30 0 75 0;
#X connect 31 0 30 1;
#X connect 32 0 74 1;
#X connect 36 0 38 0;
#X connect 37 0 39 0;
#X connect 38 0 77 0;
#X connect 39 0 31 0;
#X connect 40 0 44 0;
#X connect 40 0 48 0;
#X connect 40 0 52 0;
#X connect 40 0 56 0;
#X connect 40 0 60 0;
#X connect 40 0 68 0;
#X connect 40 0 64 0;
#X connect 40 0 37 0;
#X connect 41 0 40 0;
#X connect 42 0 37 0;
#X connect 43 0 85 0;
#X connect 44 0 45 0;
#X connect 45 0 9 0;
#X connect 46 0 44 0;
#X connect 47 0 84 0;
#X connect 48 0 49 0;
#X connect 49 0 7 0;
#X connect 50 0 48 0;
#X connect 51 0 83 0;
#X connect 52 0 53 0;
#X connect 53 0 15 0;
#X connect 54 0 52 0;
#X connect 55 0 82 0;
#X connect 56 0 57 0;
#X connect 57 0 13 0;
#X connect 58 0 56 0;
#X connect 59 0 81 0;
#X connect 60 0 61 0;
#X connect 61 0 21 0;
#X connect 62 0 60 0;
#X connect 63 0 80 0;
#X connect 64 0 65 0;
#X connect 65 0 19 0;
#X connect 66 0 64 0;
#X connect 67 0 79 0;
#X connect 68 0 69 0;
#X connect 69 0 24 0;
#X connect 70 0 68 0;
#X connect 71 0 78 0;
#X connect 72 0 73 0;
#X connect 74 0 33 0;
#X connect 74 0 33 1;
#X connect 75 0 74 0;
#X connect 75 0 77 0;
#X connect 78 0 70 0;
#X connect 79 0 66 0;
#X connect 80 0 62 0;
#X connect 81 0 58 0;
#X connect 82 0 54 0;
#X connect 83 0 50 0;
#X connect 84 0 46 0;
#X connect 85 0 42 0;
