#N canvas 0 43 1509 1097 12;
#X obj 295 691 osc~;
#X floatatom 295 610 8 0 0 0 - - - 16;
#X obj 433 809 *~;
#X obj 361 691 osc~;
#X obj 361 645 / 2;
#X obj 433 691 osc~;
#X obj 433 645 / 3;
#X obj 460 740 vsl 8 57 0 1 0 0 empty empty empty 0 -9 0 10 #e4e4e4 #4d4d4d #373737 0 1;
#X obj 361 809 *~;
#X obj 388 740 vsl 8 57 0 1 0 0 empty empty empty 0 -9 0 10 #e4e4e4 #4d4d4d #373737 0 1;
#X obj 570 809 *~;
#X obj 498 691 osc~;
#X obj 570 691 osc~;
#X obj 597 740 vsl 8 57 0 1 0 0 empty empty empty 0 -9 0 10 #e4e4e4 #4d4d4d #373737 0 1;
#X obj 498 809 *~;
#X obj 525 740 vsl 8 57 0 1 0 0 empty empty empty 0 -9 0 10 #e4e4e4 #4d4d4d #373737 0 1;
#X obj 709 809 *~;
#X obj 637 691 osc~;
#X obj 709 691 osc~;
#X obj 736 740 vsl 8 57 0 1 0 0 empty empty empty 0 -9 0 10 #e4e4e4 #4d4d4d #373737 0 1;
#X obj 637 809 *~;
#X obj 664 740 vsl 8 57 0 1 0 0 empty empty empty 0 -9 0 10 #e4e4e4 #4d4d4d #373737 0 1;
#X obj 774 691 osc~;
#X obj 774 809 *~;
#X obj 801 740 vsl 8 57 0 1 0 0 empty empty empty 0 -9 0 10 #e4e4e4 #4d4d4d #373737 0 1;
#X obj 498 645 / 4;
#X obj 570 645 / 5;
#X obj 637 645 / 6;
#X obj 709 645 / 7;
#X obj 774 645 / 8;
#X obj 295 809 *~;
#X obj 322 740 vsl 8 57 0 1 0 0 empty empty empty 0 -9 0 10 #e4e4e4 #4d4d4d #373737 0 1;
#X floatatom 502 971 5 0 1 0 - - - 12;
#X obj 456 1024 dac~;
#N canvas 0 0 450 250 (subpatch) 0;
#X array vwvwv 500 float 0;
#X coords 0 1 499 -1 271 212 1 0 0;
#X restore 1229 115 graph;
#X obj 570 909 tgl 25 0 empty empty empty 17 7 0 10 #e4e4e4 #4d4d4d #373737 0 1;
#X obj 919 913 snapshot~;
#X obj 570 945 metro 100;
#X floatatom 919 946 5 0 0 0 - - - 0;
#X obj 919 883 osc~;
#X obj 991 913 snapshot~;
#X floatatom 991 940 5 0 0 0 - - - 0;
#X obj 991 883 osc~;
#X obj 1066 913 snapshot~;
#X floatatom 1066 946 5 0 0 0 - - - 0;
#X obj 1066 883 osc~;
#X obj 1138 913 snapshot~;
#X floatatom 1138 940 5 0 0 0 - - - 0;
#X obj 1138 883 osc~;
#X obj 1218 912 snapshot~;
#X floatatom 1218 945 5 0 0 0 - - - 0;
#X obj 1218 882 osc~;
#X obj 1290 912 snapshot~;
#X floatatom 1290 939 5 0 0 0 - - - 0;
#X obj 1290 882 osc~;
#X obj 1365 912 snapshot~;
#X floatatom 1365 945 5 0 0 0 - - - 0;
#X obj 1365 882 osc~;
#X obj 1437 912 snapshot~;
#X floatatom 1437 939 5 0 0 0 - - - 0;
#X obj 1437 882 osc~;
#X obj 457 990 *~;
#X obj 458 934 *~ 0.25;
#X obj 570 972 tabwrite~ vwvwv;
#X obj 256 529 notein 1;
#X obj 256 558 mtof;
#X obj 227 98 ctlin;
#X obj 242 162 pack i f;
#X obj 242 192 route 32 33 34 35 36 37 38 39;
#X obj 266 128 / 127;
#X obj 242 263 s v1;
#X obj 294 263 s v2;
#X obj 349 263 s v3;
#X obj 401 263 s v4;
#X obj 456 263 s v5;
#X obj 508 263 s v6;
#X obj 563 263 s v7;
#X obj 615 263 s v8;
#X obj 919 995 s o1;
#X obj 991 983 s o2;
#X obj 1066 983 s o3;
#X obj 1138 977 s o4;
#X obj 1218 983 s o5;
#X obj 1290 977 s o6;
#X obj 1365 983 s o7;
#X obj 1437 977 s o8;
#X obj 308 410 +;
#X obj 360 366 t b f;
#X obj 360 331 r v1;
#X obj 225 330 r o1;
#X obj 1430 710 tgl 25 0 empty empty empty 17 7 0 10 #e4e4e4 #4d4d4d #373737 0 1;
#X obj 225 366 expr ($f1 + 1) / 2;
#X obj 968 676 ctlin;
#X obj 915 774 route 40 41 42 43 44 45 46 47;
#X obj 915 740 pack i f;
#X obj 968 714 / 126;
#X floatatom 308 434 5 0 0 0 - - - 0;
#X obj 497 410 +;
#X obj 549 366 t b f;
#X obj 414 366 expr ($f1 + 1) / 2;
#X floatatom 497 434 5 0 0 0 - - - 0;
#X obj 688 410 +;
#X obj 740 366 t b f;
#X obj 605 366 expr ($f1 + 1) / 2;
#X floatatom 688 434 5 0 0 0 - - - 0;
#X obj 877 410 +;
#X obj 929 366 t b f;
#X obj 794 366 expr ($f1 + 1) / 2;
#X floatatom 877 434 5 0 0 0 - - - 0;
#X obj 850 556 +;
#X obj 902 512 t b f;
#X obj 767 512 expr ($f1 + 1) / 2;
#X floatatom 850 580 5 0 0 0 - - - 0;
#X obj 1039 556 +;
#X obj 1091 512 t b f;
#X obj 956 512 expr ($f1 + 1) / 2;
#X floatatom 1039 580 5 0 0 0 - - - 0;
#X obj 1230 556 +;
#X obj 1282 512 t b f;
#X obj 1147 512 expr ($f1 + 1) / 2;
#X floatatom 1230 580 5 0 0 0 - - - 0;
#X obj 1419 556 +;
#X obj 1471 512 t b f;
#X obj 1336 512 expr ($f1 + 1) / 2;
#X floatatom 1419 580 5 0 0 0 - - - 0;
#X obj 414 330 r o2;
#X obj 549 331 r v2;
#X obj 605 330 r o3;
#X obj 740 331 r v3;
#X obj 794 330 r o4;
#X obj 929 331 r v4;
#X obj 767 476 r o5;
#X obj 902 477 r v5;
#X obj 956 476 r o6;
#X obj 1091 477 r v6;
#X obj 1147 476 r o7;
#X obj 1282 477 r v7;
#X obj 1336 476 r o8;
#X obj 1471 477 r v8;
#X floatatom 871 863 5 0 0 0 - - - 0;
#X obj 917 832 * 10;
#X obj 989 835 * 10;
#X obj 1065 837 * 10;
#X obj 1133 839 * 10;
#X obj 1220 837 * 10;
#X obj 1292 840 * 10;
#X obj 1368 842 * 10;
#X obj 1436 844 * 10;
#X obj 1427 749 metro 100;
#X text 789 61 oschestra 16n;
#X connect 0 0 30 0;
#X connect 1 0 4 0;
#X connect 1 0 0 0;
#X connect 1 0 6 0;
#X connect 1 0 25 0;
#X connect 1 0 26 0;
#X connect 1 0 27 0;
#X connect 1 0 28 0;
#X connect 1 0 29 0;
#X connect 2 0 62 0;
#X connect 3 0 8 0;
#X connect 4 0 3 0;
#X connect 5 0 2 0;
#X connect 6 0 5 0;
#X connect 7 0 2 1;
#X connect 8 0 62 0;
#X connect 9 0 8 1;
#X connect 10 0 62 0;
#X connect 11 0 14 0;
#X connect 12 0 10 0;
#X connect 13 0 10 1;
#X connect 14 0 62 0;
#X connect 15 0 14 1;
#X connect 16 0 62 0;
#X connect 17 0 20 0;
#X connect 18 0 16 0;
#X connect 19 0 16 1;
#X connect 20 0 62 0;
#X connect 21 0 20 1;
#X connect 22 0 23 0;
#X connect 23 0 62 0;
#X connect 24 0 23 1;
#X connect 25 0 11 0;
#X connect 26 0 12 0;
#X connect 27 0 17 0;
#X connect 28 0 18 0;
#X connect 29 0 22 0;
#X connect 30 0 62 0;
#X connect 31 0 30 1;
#X connect 32 0 61 1;
#X connect 35 0 37 0;
#X connect 36 0 38 0;
#X connect 37 0 63 0;
#X connect 38 0 78 0;
#X connect 39 0 36 0;
#X connect 40 0 41 0;
#X connect 41 0 79 0;
#X connect 42 0 40 0;
#X connect 43 0 44 0;
#X connect 44 0 80 0;
#X connect 45 0 43 0;
#X connect 46 0 47 0;
#X connect 47 0 81 0;
#X connect 48 0 46 0;
#X connect 49 0 50 0;
#X connect 50 0 82 0;
#X connect 51 0 49 0;
#X connect 52 0 53 0;
#X connect 53 0 83 0;
#X connect 54 0 52 0;
#X connect 55 0 56 0;
#X connect 56 0 84 0;
#X connect 57 0 55 0;
#X connect 58 0 59 0;
#X connect 59 0 85 0;
#X connect 60 0 58 0;
#X connect 61 0 33 0;
#X connect 61 0 33 1;
#X connect 62 0 61 0;
#X connect 62 0 63 0;
#X connect 64 0 65 0;
#X connect 65 0 1 0;
#X connect 66 0 69 0;
#X connect 66 1 67 0;
#X connect 67 0 68 0;
#X connect 68 0 70 0;
#X connect 68 1 71 0;
#X connect 68 2 72 0;
#X connect 68 3 73 0;
#X connect 68 4 74 0;
#X connect 68 5 75 0;
#X connect 68 6 76 0;
#X connect 68 7 77 0;
#X connect 69 0 67 1;
#X connect 86 0 96 0;
#X connect 87 0 86 0;
#X connect 87 1 86 1;
#X connect 88 0 87 0;
#X connect 89 0 91 0;
#X connect 90 0 148 0;
#X connect 91 0 86 0;
#X connect 92 0 95 0;
#X connect 92 1 94 0;
#X connect 93 0 140 0;
#X connect 93 1 141 0;
#X connect 93 2 142 0;
#X connect 93 3 143 0;
#X connect 93 4 144 0;
#X connect 93 5 145 0;
#X connect 93 6 146 0;
#X connect 93 7 147 0;
#X connect 94 0 93 0;
#X connect 95 0 94 1;
#X connect 96 0 31 0;
#X connect 97 0 100 0;
#X connect 98 0 97 0;
#X connect 98 1 97 1;
#X connect 99 0 97 0;
#X connect 100 0 9 0;
#X connect 101 0 104 0;
#X connect 102 0 101 0;
#X connect 102 1 101 1;
#X connect 103 0 101 0;
#X connect 104 0 7 0;
#X connect 105 0 108 0;
#X connect 106 0 105 0;
#X connect 106 1 105 1;
#X connect 107 0 105 0;
#X connect 108 0 15 0;
#X connect 109 0 112 0;
#X connect 110 0 109 0;
#X connect 110 1 109 1;
#X connect 111 0 109 0;
#X connect 112 0 13 0;
#X connect 113 0 116 0;
#X connect 114 0 113 0;
#X connect 114 1 113 1;
#X connect 115 0 113 0;
#X connect 116 0 21 0;
#X connect 117 0 120 0;
#X connect 118 0 117 0;
#X connect 118 1 117 1;
#X connect 119 0 117 0;
#X connect 120 0 19 0;
#X connect 121 0 124 0;
#X connect 122 0 121 0;
#X connect 122 1 121 1;
#X connect 123 0 121 0;
#X connect 124 0 24 0;
#X connect 125 0 99 0;
#X connect 126 0 98 0;
#X connect 127 0 103 0;
#X connect 128 0 102 0;
#X connect 129 0 107 0;
#X connect 130 0 106 0;
#X connect 131 0 111 0;
#X connect 132 0 110 0;
#X connect 133 0 115 0;
#X connect 134 0 114 0;
#X connect 135 0 119 0;
#X connect 136 0 118 0;
#X connect 137 0 123 0;
#X connect 138 0 122 0;
#X connect 140 0 39 0;
#X connect 140 0 139 0;
#X connect 141 0 42 0;
#X connect 142 0 45 0;
#X connect 143 0 48 0;
#X connect 144 0 51 0;
#X connect 145 0 54 0;
#X connect 146 0 57 0;
#X connect 147 0 60 0;
#X connect 148 0 40 0;
#X connect 148 0 43 0;
#X connect 148 0 46 0;
#X connect 148 0 49 0;
#X connect 148 0 52 0;
#X connect 148 0 58 0;
#X connect 148 0 55 0;
#X connect 148 0 36 0;
