#N canvas 864 152 1764 1158 12;
#X obj 79 404 serialosc;
#X msg 109 354 /monome/grid/led/all 0;
#X obj 27 63 f;
#X obj 56 64 + 1;
#X msg 26 112 0;
#X obj 27 17 tgl 19 0 empty empty empty 0 -10 0 12 #fcfcfc #000000 #000000 0 1;
#X obj 52 17 bng 19 250 50 0 empty empty empty 0 -10 0 12 #fcfcfc #000000 #000000;
#X floatatom 59 112 5 0 0 0 - - - 0;
#X msg 172 159 /monome/grid/led/row 0 \$1 255;
#X obj 70 183 spigot 1;
#X obj 123 159 tgl 19 0 empty empty empty 0 -10 0 12 #fcfcfc #000000 #000000 0 1;
#X obj 167 126 spigot 1;
#X obj 220 95 tgl 19 0 empty empty empty 0 -10 0 12 #fcfcfc #000000 #000000 0 1;
#X msg 71 205 /monome/grid/led/col \$1 0 255;
#X obj 348 230 spigot 1;
#X obj 401 206 tgl 19 0 empty empty empty 0 -10 0 12 #fcfcfc #000000 #000000 0 1;
#X obj 445 173 spigot 1;
#X obj 498 142 tgl 19 0 empty empty empty 0 -10 0 12 #fcfcfc #000000 #000000 0 1;
#X msg 348 269 /monome/grid/led/col \$1 0 0;
#X msg 450 206 /monome/grid/led/row 0 \$1 0;
#X obj 356 47 bng 19 250 50 0 empty empty empty 0 -10 0 12 #fcfcfc #000000 #000000;
#X obj 148 265 hsl 162 19 0 8 0 0 empty empty empty -2 -10 0 12 #fcfcfc #000000 #000000 0 1;
#X floatatom 145 317 5 0 0 0 - - - 0;
#X obj 145 292 int;
#X obj 302 408 f;
#X obj 331 409 + 1;
#X obj 301 432 sel 8;
#X msg 301 457 0;
#X obj 302 362 tgl 19 0 empty empty empty 0 -10 0 12 #fcfcfc #000000 #000000 0 1;
#X obj 327 362 bng 19 250 50 0 empty empty empty 0 -10 0 12 #fcfcfc #000000 #000000;
#X floatatom 334 457 5 0 0 0 - - - 0;
#X obj 328 334 spigot 1;
#X obj 381 310 tgl 19 0 empty empty empty 0 -10 0 12 #fcfcfc #000000 #000000 0 1;
#X obj 254 42 spigot 1;
#X obj 307 18 tgl 19 0 empty empty empty 0 -10 0 12 #fcfcfc #000000 #000000 0 1;
#X obj 302 385 metro 1600;
#X text 411 310 chaos;
#X text 245 94 A;
#X text 99 159 A;
#X text 524 142 B;
#X text 376 206 B;
#X text 789 56 256k;
#X obj 26 87 sel 7;
#X text 75 86 < change here;
#X text 180 292 < change here;
#X obj 149 35 loadbang;
#X text 593 36 8x8 walnut monome drawing study.;
#X obj 27 40 metro 100;
#X obj 25 329 sel 6;
#X connect 1 0 0 0;
#X connect 2 0 3 0;
#X connect 2 0 7 0;
#X connect 2 0 42 0;
#X connect 3 0 2 1;
#X connect 4 0 2 0;
#X connect 5 0 47 0;
#X connect 6 0 2 0;
#X connect 7 0 9 0;
#X connect 7 0 11 0;
#X connect 7 0 14 0;
#X connect 7 0 16 0;
#X connect 7 0 48 0;
#X connect 8 0 0 0;
#X connect 9 0 13 0;
#X connect 10 0 9 1;
#X connect 11 0 8 0;
#X connect 12 0 11 1;
#X connect 13 0 0 0;
#X connect 14 0 18 0;
#X connect 15 0 14 1;
#X connect 16 0 19 0;
#X connect 17 0 16 1;
#X connect 18 0 0 0;
#X connect 19 0 0 0;
#X connect 20 0 17 0;
#X connect 20 0 15 0;
#X connect 20 0 12 0;
#X connect 20 0 10 0;
#X connect 20 0 31 0;
#X connect 21 0 23 0;
#X connect 22 0 48 1;
#X connect 23 0 22 0;
#X connect 24 0 25 0;
#X connect 24 0 26 0;
#X connect 24 0 30 0;
#X connect 25 0 24 1;
#X connect 26 0 27 0;
#X connect 27 0 24 0;
#X connect 28 0 35 0;
#X connect 29 0 24 0;
#X connect 30 0 48 1;
#X connect 31 0 29 0;
#X connect 32 0 31 1;
#X connect 33 0 20 0;
#X connect 34 0 33 1;
#X connect 35 0 24 0;
#X connect 42 0 4 0;
#X connect 45 0 12 0;
#X connect 45 0 10 0;
#X connect 45 0 34 0;
#X connect 47 0 2 0;
#X connect 48 0 33 0;
