#N canvas 827 239 527 327 12;
#X obj 297 190 tgl 25 0 empty empty empty 17 7 0 10 #e4e4e4 #4d4d4d #373737 0 1;
#X obj 297 224 metro 100;
#X obj 297 253 bng 25 250 50 0 empty empty empty 17 7 0 10 #e4e4e4 #4d4d4d #373737;
#X obj 297 287 tabwrite~ wave1;
#N canvas 0 22 450 278 (subpatch) 0;
#X array wave1 400 float 0;
#X coords 0 1 399 -1 200 140 1;
#X restore 467 117 graph;
#X obj 182 224 osc~ 400;
#X obj 164 138 expr~ $v1 - 0.5;
#X obj 164 104 phasor~;
#X floatatom 164 75 5 0 0 0 empty - - 12;
#X obj 164 37 inlet;
#X obj 99 366 outlet~;
#X connect 0 0 1 0;
#X connect 1 0 2 0;
#X connect 2 0 3 0;
#X connect 6 0 3 0;
#X connect 6 0 10 0;
#X connect 7 0 6 0;
#X connect 8 0 7 0;
#X connect 9 0 8 0;
