#N canvas 639 355 1476 1097 12;
#X obj 526 147 inlet;
#X text 504 119 clock in;
#X obj 621 152 inlet;
#X obj 808 151 inlet;
#X text 82 28 prolly in pd study;
#X obj 437 584 outlet;
#X text 379 610 output trigger;
#X obj 432 130 tgl 15 0 empty empty empty 17 7 0 10 #fcfcfc #000000 #000000 0 1;
#X obj 432 150 metro 200;
#X obj 432 180 bng 15 250 50 0 empty empty empty 17 7 0 10 #fcfcfc #000000 #000000;
#X obj 1021 156 inlet;
#X text 1162 245 reset sequence probability;
#X text 853 151 probability [0-100];
#X obj 1083 273 tgl 15 0 empty empty empty 17 7 0 10 #fcfcfc #000000 #000000 0 1;
#X obj 1105 448 random 100;
#N canvas 0 22 450 278 (subpatch) 0;
#X array problist 16 float 3;
#A 0 95 31 10 14 83 7 17 94 30 75 8 86 5 67 74 56;
#X coords 0 100 16 0 200 140 1 0 0;
#X restore 772 327 graph;
#X obj 1035 506 tabwrite problist;
#X obj 1111 346 f;
#X obj 1145 345 + 1;
#X obj 1145 370 % 16;
#X obj 538 231 f;
#X obj 575 207 + 1;
#X obj 575 232 % 16;
#X floatatom 538 269 5 0 0 0 - - - 0;
#X floatatom 621 186 5 0 15 1 step\ length - - 0;
#X obj 434 314 tabread problist;
#X floatatom 435 358 5 0 0 0 - - - 0;
#X text 667 151 step length [0-15];
#X obj 434 400 >;
#X floatatom 435 436 5 0 0 0 - - - 0;
#X floatatom 808 181 5 0 100 1 probability\ threshhold - - 0;
#X obj 436 472 select 1;
#X obj 507 584 outlet;
#X text 504 610 ALT output trigger;
#X obj 437 534 bng 15 250 50 0 empty empty empty 17 7 0 10 #fcfcfc #000000 #000000;
#X obj 495 533 bng 15 250 50 0 empty empty empty 17 7 0 10 #fcfcfc #000000 #000000;
#X obj 1129 146 loadbang;
#X obj 695 585 outlet;
#X text 662 612 step probability;
#X obj 1122 419 select 0;
#X obj 1087 303 metro 1;
#X obj 1133 244 bng 19 250 50 0 empty empty empty 0 -10 0 12 #fcfcfc #000000 #000000;
#X connect 0 0 9 0;
#X connect 2 0 24 0;
#X connect 3 0 30 0;
#X connect 7 0 8 0;
#X connect 8 0 9 0;
#X connect 9 0 20 0;
#X connect 9 0 25 0;
#X connect 10 0 13 0;
#X connect 13 0 40 0;
#X connect 14 0 16 0;
#X connect 17 0 18 0;
#X connect 17 0 14 0;
#X connect 17 0 39 0;
#X connect 18 0 19 0;
#X connect 19 0 17 1;
#X connect 19 0 16 1;
#X connect 20 0 21 0;
#X connect 20 0 23 0;
#X connect 21 0 22 0;
#X connect 22 0 20 1;
#X connect 23 0 25 0;
#X connect 24 0 22 1;
#X connect 25 0 26 0;
#X connect 26 0 28 0;
#X connect 26 0 37 0;
#X connect 28 0 29 0;
#X connect 29 0 31 0;
#X connect 30 0 28 1;
#X connect 31 0 34 0;
#X connect 31 1 35 0;
#X connect 34 0 5 0;
#X connect 35 0 32 0;
#X connect 36 0 13 0;
#X connect 39 0 13 0;
#X connect 40 0 17 0;
#X connect 40 0 14 0;
#X connect 40 0 16 0;
#X connect 41 0 13 0;
#X coords 0 1097 1 1096 220 280 0;
