#N canvas 178 332 2041 1182 12;
#N canvas 0 0 450 250 (subpatch) 0;
#X array sample 433664 float 0;
#X coords 0 1 433663 -1 606 98 1 0 0;
#X restore 821 637 graph;
#X obj 429 296 bng 25 250 50 0 empty empty load\ sample 0 -10 0 10 #e4e4e4 #4d4d4d #373737;
#X obj 429 490 soundfiler;
#X msg 429 446 read -resize \$1 sample;
#X floatatom 429 529 15 0 0 0 - - - 16;
#X obj 440 851 tabread4~ sample;
#X obj 440 720 pack f f f;
#X msg 440 762 \$1 \, \$2 \$3;
#X obj 474 637 / 44.1;
#X listbox 429 406 100 0 0 0 - - - 16;
#X obj 433 1066 dac~;
#X obj 373 371 bng 25 250 50 0 empty empty empty 17 7 0 10 #e4e4e4 #4d4d4d #373737;
#X obj 429 371 openpanel;
#X msg 429 339 symbol /Users/fayekhelmi/Dropbox/MUSIC\ WORK\ CLOUD/;
#X obj 824 636 hsl 600 98 0 1 0 0 empty empty empty -2 -8 0 10 #ffffff #4d4d4d #373737 0 1;
#X obj 278 971 vsnapshot~;
#X obj 278 903 tgl 25 0 empty empty empty 17 7 0 10 #e4e4e4 #4d4d4d #373737 0 1;
#X obj 278 937 metro 100;
#X obj 440 808 vline~;
#X obj 218 873 expr~ 1 / ($v1 / $v2);
#X obj 436 961 *~;
#X obj 481 943 hsl 100 19 0 1 0 0 empty empty volume -2 -10 0 12 #fcfcfc #000000 #000000 0 1;
#X floatatom 821 807 5 0 0 0 - - - 0;
#X obj 821 847 expr~ $v1 * $v2;
#X obj 821 916 vsnapshot~;
#X floatatom 821 950 12 0 0 0 - - - 0;
#X obj 824 736 hsl 600 40 0 1 0 0 empty empty empty -2 -8 0 10 #ffffff #4d4d4d #373737 0 0;
#X obj 619 871 print;
#X obj 794 848 bng 19 250 50 0 empty empty empty 0 -10 0 12 #fcfcfc #000000 #000000;
#X obj 752 885 delay 10;
#X obj 475 592 expr $f2 - $f1;
#X obj 476 668 t b f;
#X obj 278 1004 s scrollmarker;
#X obj 821 598 r scrollmarker;
#X text 588 532 take the selected position sample number and subtract it from the total to get the size of sample from current selected point to end then divide it by sample rate to get accurate speed at at position;
#X text 955 848 2- to click where you want to sample to play from \, take the selected position float value (from 0 to 1) and convert it back to the sample value;
#X text 158 767 1- to show a playmarker take the sample size and convert it to a float value (from 0 to 1) v1 is total value divided by the vline value then divide that by 1;
#X connect 1 0 13 0;
#X connect 2 0 4 0;
#X connect 3 0 2 0;
#X connect 4 0 19 0;
#X connect 4 0 23 1;
#X connect 4 0 6 1;
#X connect 4 0 30 1;
#X connect 5 0 20 0;
#X connect 6 0 7 0;
#X connect 7 0 18 0;
#X connect 7 0 27 0;
#X connect 8 0 31 0;
#X connect 9 0 3 0;
#X connect 11 0 9 0;
#X connect 11 0 6 0;
#X connect 12 0 9 0;
#X connect 13 0 12 0;
#X connect 15 0 32 0;
#X connect 16 0 17 0;
#X connect 17 0 15 0;
#X connect 18 0 5 0;
#X connect 18 0 19 1;
#X connect 19 0 15 0;
#X connect 20 0 10 0;
#X connect 20 0 10 1;
#X connect 21 0 20 1;
#X connect 22 0 23 0;
#X connect 22 0 28 0;
#X connect 23 0 24 0;
#X connect 24 0 25 0;
#X connect 25 0 6 0;
#X connect 25 0 30 0;
#X connect 26 0 22 0;
#X connect 28 0 24 0;
#X connect 28 0 29 0;
#X connect 29 0 24 0;
#X connect 30 0 8 0;
#X connect 31 0 6 0;
#X connect 31 1 6 2;
#X connect 33 0 14 0;
