#N canvas 50 66 2555 1390 12;
#X obj 984 414 tgl 25 0 empty empty empty 17 7 0 10 #e4e4e4 #4d4d4d #373737 0 1;
#X obj 984 448 metro 200;
#X obj 984 477 bng 25 250 50 0 empty empty empty 17 7 0 10 #e4e4e4 #4d4d4d #373737;
#X obj 847 804 bng 25 250 50 0 empty empty empty 17 7 0 10 #e4e4e4 #4d4d4d #373737;
#X obj 801 733 prolly;
#X floatatom 898 835 5 0 0 0 empty - - 12;
#X floatatom 951 734 7 0 0 0 - - - 24;
#X obj 904 692 int;
#X obj 825 699 int;
#X obj 1008 663 bng 25 250 50 0 empty empty empty 17 7 0 10 #e4e4e4 #4d4d4d #373737;
#X obj 740 828 line;
#X msg 740 786 1 \, 0 100;
#X floatatom 757 862 5 0 0 0 empty - - 12;
#X obj 672 919 *~;
#X obj 653 814 osc~ 660;
#X obj 1082 1135 dac~;
#X obj 1031 1097 *~;
#X obj 1374 804 bng 25 250 50 0 empty empty empty 17 7 0 10 #e4e4e4 #4d4d4d #373737;
#X obj 1328 733 prolly;
#X floatatom 1425 835 5 0 0 0 empty - - 12;
#X floatatom 1478 734 8 0 0 0 - - - 24;
#X obj 1431 692 int;
#X obj 1352 699 int;
#X obj 1535 663 bng 25 250 50 0 empty empty empty 17 7 0 10 #e4e4e4 #4d4d4d #373737;
#X obj 1267 828 line;
#X msg 1267 786 1 \, 0 100;
#X floatatom 1284 862 5 0 0 0 empty - - 12;
#X obj 1199 919 *~;
#X obj 1180 814 osc~ 550;
#X obj 456 898 line;
#X floatatom 473 932 5 0 0 0 empty - - 12;
#X obj 388 989 *~;
#X obj 369 884 noise~;
#X msg 456 856 0.2 \, 0 30;
#X obj 1900 804 bng 25 250 50 0 empty empty empty 17 7 0 10 #e4e4e4 #4d4d4d #373737;
#X obj 1854 733 prolly;
#X floatatom 1951 835 5 0 0 0 empty - - 12;
#X floatatom 2025 737 15 0 0 0 - - - 24;
#X obj 1957 692 int;
#X obj 1878 699 int;
#X obj 2061 663 bng 25 250 50 0 empty empty empty 17 7 0 10 #e4e4e4 #4d4d4d #373737;
#X obj 1793 828 line;
#X floatatom 1810 862 5 0 0 0 empty - - 12;
#X obj 1725 919 *~;
#X obj 1706 814 osc~ 110;
#X obj 1650 569 mtof;
#X obj 1329 1075 vsl 19 162 0 1 0 0 empty empty empty 0 -9 0 12 #fcfcfc #000000 #000000 0 1;
#X obj 1445 442 vsl 19 162 0 100 0 0 empty empty empty 0 -9 0 12 #fcfcfc #000000 #000000 0 1;
#X obj 1980 448 vsl 19 162 0 100 0 0 empty empty empty 0 -9 0 12 #fcfcfc #000000 #000000 0 1;
#X obj 1128 347 vsl 19 162 0 100 0 0 empty empty empty 0 -9 0 12 #fcfcfc #000000 #000000 0 1;
#X obj 1945 448 vsl 19 162 0 16 0 0 empty empty empty 0 -9 0 12 #fcfcfc #000000 #000000 0 1;
#X obj 1408 442 vsl 19 162 0 16 0 0 empty empty empty 0 -9 0 12 #fcfcfc #000000 #000000 0 1;
#X obj 1092 348 vsl 19 162 0 16 0 0 empty empty empty 0 -9 0 12 #fcfcfc #000000 #000000 0 1;
#X msg 1793 786 3 \, 0 400;
#X connect 0 0 1 0;
#X connect 1 0 2 0;
#X connect 2 0 33 0;
#X connect 2 0 4 0;
#X connect 2 0 18 0;
#X connect 2 0 35 0;
#X connect 4 0 3 0;
#X connect 4 0 11 0;
#X connect 4 2 5 0;
#X connect 7 0 6 0;
#X connect 7 0 4 2;
#X connect 8 0 4 1;
#X connect 8 0 6 0;
#X connect 9 0 4 3;
#X connect 10 0 12 0;
#X connect 10 0 13 1;
#X connect 11 0 10 0;
#X connect 13 0 16 0;
#X connect 14 0 13 0;
#X connect 16 0 15 0;
#X connect 16 0 15 1;
#X connect 18 0 17 0;
#X connect 18 0 25 0;
#X connect 18 2 19 0;
#X connect 21 0 20 0;
#X connect 21 0 18 2;
#X connect 22 0 18 1;
#X connect 22 0 20 0;
#X connect 23 0 18 3;
#X connect 24 0 26 0;
#X connect 24 0 27 1;
#X connect 25 0 24 0;
#X connect 27 0 16 0;
#X connect 28 0 27 0;
#X connect 29 0 30 0;
#X connect 29 0 31 1;
#X connect 31 0 16 0;
#X connect 32 0 31 0;
#X connect 33 0 29 0;
#X connect 35 0 34 0;
#X connect 35 0 53 0;
#X connect 35 2 36 0;
#X connect 38 0 37 0;
#X connect 38 0 35 2;
#X connect 39 0 35 1;
#X connect 39 0 37 0;
#X connect 40 0 35 3;
#X connect 41 0 42 0;
#X connect 41 0 43 1;
#X connect 43 0 16 0;
#X connect 44 0 43 0;
#X connect 45 0 44 0;
#X connect 46 0 16 1;
#X connect 47 0 21 0;
#X connect 48 0 38 0;
#X connect 49 0 7 0;
#X connect 50 0 39 0;
#X connect 51 0 22 0;
#X connect 52 0 8 0;
#X connect 53 0 41 0;
