#N canvas 756 38 1026 888 12;
#X obj 242 477 osc~ 420;
#X obj 242 527 *~;
#X obj 242 569 dac~;
#X obj 487 112 tgl 19 0 empty empty empty 0 -10 0 12 #fcfcfc #000000 #000000 0 1;
#X obj 322 437 metro 500;
#X obj 402 292 vsl 19 162 0 200 0 0 empty empty A 0 -9 0 12 #fcfcfc #000000 #000000 0 1;
#X obj 426 292 vsl 19 162 0 500 0 0 empty empty H 0 -9 0 12 #fcfcfc #000000 #000000 0 1;
#X obj 450 292 vsl 19 162 0 2000 0 0 empty empty R 0 -9 0 12 #fcfcfc #000000 #000000 0 1;
#X obj 395 475 AHR;
#X obj 486 184 snapshot~;
#X floatatom 486 258 5 0 0 0 - - - 0;
#X obj 487 161 metro 100;
#X obj 485 208 + 1;
#X obj 486 232 * 300;
#X obj 423 161 osc~ 0.5;
#X obj 500 137 s bang;
#X obj 323 409 r bang;
#X obj 484 560 bng 19 250 50 0 empty empty empty 0 -10 0 12 #fcfcfc #000000 #000000;
#X obj 504 640 kickdrum;
#X connect 0 0 1 0;
#X connect 1 0 2 0;
#X connect 3 0 11 0;
#X connect 3 0 15 0;
#X connect 4 0 8 0;
#X connect 5 0 8 1;
#X connect 6 0 8 2;
#X connect 7 0 8 3;
#X connect 8 0 1 1;
#X connect 9 0 12 0;
#X connect 11 0 9 0;
#X connect 12 0 13 0;
#X connect 13 0 7 0;
#X connect 13 0 10 0;
#X connect 14 0 9 0;
#X connect 16 0 4 0;
#X connect 17 0 18 0;
#X connect 18 0 2 0;
