#N canvas 1063 524 1059 650 12;
#X obj 202 202 osc~;
#X msg 240 142 440;
#X obj 245 102 loadbang;
#X obj 132 133 vsl 20 40 0 1 0 0 empty empty empty 0 -9 0 10 #fcfcfc #000000 #000000 0 1;
#X obj 105 133 vsl 20 40 20 660 0 0 empty empty empty 0 -9 0 10 #fcfcfc #000000 #000000 0 1;
#X obj 272 233 *~;
#X obj 272 256 dac~;
#X connect 0 0 5 0;
#X connect 1 0 4 0;
#X connect 2 0 1 0;
#X connect 2 0 3 0;
#X connect 2 0 0 0;
#X connect 3 0 5 1;
#X connect 4 0 0 0;
#X connect 5 0 6 0;
#X connect 5 0 6 1;
#X coords 0 -1 1 1 60 80 1 100 100;
